<mxfile host="app.diagrams.net" agent="Mozilla/5.0 (Windows NT 10.0; Win64; x64) AppleWebKit/537.36 (KHTML, like Gecko) Chrome/136.0.0.0 Safari/537.36" version="27.0.9">
  <diagram name="Page-1" id="86853kJkCU-1bh7Vl4ZU">
    <mxGraphModel dx="2101" dy="660" grid="1" gridSize="10" guides="1" tooltips="1" connect="1" arrows="1" fold="1" page="1" pageScale="1" pageWidth="850" pageHeight="1100" math="0" shadow="0">
      <root>
        <mxCell id="0" />
        <mxCell id="1" parent="0" />
        <mxCell id="lQkiscjsi551CZ9GCO7X-1" value="" style="rounded=0;whiteSpace=wrap;html=1;fillColor=#f8cecc;gradientColor=#ea6b66;strokeColor=#b85450;" vertex="1" parent="1">
          <mxGeometry x="-80" y="200" width="200" height="120" as="geometry" />
        </mxCell>
        <mxCell id="lQkiscjsi551CZ9GCO7X-2" value="&lt;b&gt;&lt;font face=&quot;Comic Sans MS&quot;&gt;CM Server&lt;/font&gt;&lt;/b&gt;" style="text;html=1;align=center;verticalAlign=middle;resizable=0;points=[];autosize=1;strokeColor=none;fillColor=none;" vertex="1" parent="1">
          <mxGeometry x="-25" y="210" width="90" height="30" as="geometry" />
        </mxCell>
        <mxCell id="lQkiscjsi551CZ9GCO7X-7" style="edgeStyle=orthogonalEdgeStyle;rounded=0;orthogonalLoop=1;jettySize=auto;html=1;entryX=1;entryY=0.5;entryDx=0;entryDy=0;flowAnimation=1;" edge="1" parent="1" source="lQkiscjsi551CZ9GCO7X-3" target="lQkiscjsi551CZ9GCO7X-1">
          <mxGeometry relative="1" as="geometry" />
        </mxCell>
        <mxCell id="lQkiscjsi551CZ9GCO7X-3" value="&lt;b&gt;NODE-1&lt;/b&gt;" style="rounded=1;whiteSpace=wrap;html=1;fillColor=#d5e8d4;gradientColor=#97d077;strokeColor=#82b366;" vertex="1" parent="1">
          <mxGeometry x="230" y="100" width="120" height="60" as="geometry" />
        </mxCell>
        <mxCell id="lQkiscjsi551CZ9GCO7X-8" style="edgeStyle=orthogonalEdgeStyle;rounded=0;orthogonalLoop=1;jettySize=auto;html=1;flowAnimation=1;" edge="1" parent="1" source="lQkiscjsi551CZ9GCO7X-4">
          <mxGeometry relative="1" as="geometry">
            <mxPoint x="130" y="260" as="targetPoint" />
          </mxGeometry>
        </mxCell>
        <mxCell id="lQkiscjsi551CZ9GCO7X-4" value="&lt;b&gt;NODE-2&lt;/b&gt;" style="rounded=1;whiteSpace=wrap;html=1;fillColor=#d5e8d4;gradientColor=#97d077;strokeColor=#82b366;" vertex="1" parent="1">
          <mxGeometry x="230" y="230" width="120" height="60" as="geometry" />
        </mxCell>
        <mxCell id="lQkiscjsi551CZ9GCO7X-9" style="edgeStyle=orthogonalEdgeStyle;rounded=0;orthogonalLoop=1;jettySize=auto;html=1;entryX=1;entryY=0.5;entryDx=0;entryDy=0;flowAnimation=1;" edge="1" parent="1" source="lQkiscjsi551CZ9GCO7X-5" target="lQkiscjsi551CZ9GCO7X-1">
          <mxGeometry relative="1" as="geometry" />
        </mxCell>
        <mxCell id="lQkiscjsi551CZ9GCO7X-5" value="&lt;b&gt;NODE-3&lt;/b&gt;" style="rounded=1;whiteSpace=wrap;html=1;fillColor=#d5e8d4;gradientColor=#97d077;strokeColor=#82b366;" vertex="1" parent="1">
          <mxGeometry x="230" y="360" width="120" height="60" as="geometry" />
        </mxCell>
        <mxCell id="lQkiscjsi551CZ9GCO7X-6" value="&lt;b&gt;&lt;font face=&quot;Comic Sans MS&quot;&gt;configs&lt;/font&gt;&lt;/b&gt;" style="ellipse;whiteSpace=wrap;html=1;fillColor=#fff2cc;gradientColor=#ffd966;strokeColor=#d6b656;" vertex="1" parent="1">
          <mxGeometry x="-25" y="250" width="90" height="60" as="geometry" />
        </mxCell>
        <mxCell id="lQkiscjsi551CZ9GCO7X-10" value="&lt;b&gt;every 30min&lt;/b&gt;" style="text;html=1;align=center;verticalAlign=middle;resizable=0;points=[];autosize=1;strokeColor=none;fillColor=none;" vertex="1" parent="1">
          <mxGeometry x="90" y="140" width="90" height="30" as="geometry" />
        </mxCell>
        <mxCell id="lQkiscjsi551CZ9GCO7X-11" value="&lt;b&gt;agent&lt;/b&gt;" style="ellipse;whiteSpace=wrap;html=1;fillColor=#dae8fc;gradientColor=#7ea6e0;strokeColor=#6c8ebf;" vertex="1" parent="1">
          <mxGeometry x="230" y="120" width="60" height="40" as="geometry" />
        </mxCell>
        <mxCell id="lQkiscjsi551CZ9GCO7X-12" value="&lt;b&gt;agent&lt;/b&gt;" style="ellipse;whiteSpace=wrap;html=1;fillColor=#dae8fc;gradientColor=#7ea6e0;strokeColor=#6c8ebf;" vertex="1" parent="1">
          <mxGeometry x="230" y="260" width="60" height="40" as="geometry" />
        </mxCell>
        <mxCell id="lQkiscjsi551CZ9GCO7X-13" value="&lt;b&gt;agent&lt;/b&gt;" style="ellipse;whiteSpace=wrap;html=1;fillColor=#dae8fc;gradientColor=#7ea6e0;strokeColor=#6c8ebf;" vertex="1" parent="1">
          <mxGeometry x="230" y="390" width="60" height="40" as="geometry" />
        </mxCell>
        <mxCell id="lQkiscjsi551CZ9GCO7X-14" value="&lt;b&gt;1. Un necessary agent installation. Own protocol should be developed&lt;/b&gt;&lt;div&gt;&lt;b&gt;2. resources waste&lt;/b&gt;&lt;/div&gt;&lt;div&gt;&lt;b&gt;3. power waste&lt;/b&gt;&lt;/div&gt;" style="text;html=1;align=left;verticalAlign=middle;resizable=0;points=[];autosize=1;strokeColor=none;fillColor=none;" vertex="1" parent="1">
          <mxGeometry x="-170" y="330" width="420" height="60" as="geometry" />
        </mxCell>
        <mxCell id="lQkiscjsi551CZ9GCO7X-21" style="edgeStyle=orthogonalEdgeStyle;rounded=0;orthogonalLoop=1;jettySize=auto;html=1;entryX=0;entryY=0.5;entryDx=0;entryDy=0;flowAnimation=1;" edge="1" parent="1" source="lQkiscjsi551CZ9GCO7X-15" target="lQkiscjsi551CZ9GCO7X-18">
          <mxGeometry relative="1" as="geometry" />
        </mxCell>
        <mxCell id="lQkiscjsi551CZ9GCO7X-23" style="edgeStyle=orthogonalEdgeStyle;rounded=0;orthogonalLoop=1;jettySize=auto;html=1;entryX=0;entryY=0.5;entryDx=0;entryDy=0;flowAnimation=1;" edge="1" parent="1" source="lQkiscjsi551CZ9GCO7X-15" target="lQkiscjsi551CZ9GCO7X-20">
          <mxGeometry relative="1" as="geometry" />
        </mxCell>
        <mxCell id="lQkiscjsi551CZ9GCO7X-24" style="edgeStyle=orthogonalEdgeStyle;rounded=0;orthogonalLoop=1;jettySize=auto;html=1;entryX=0;entryY=0.5;entryDx=0;entryDy=0;flowAnimation=1;" edge="1" parent="1" source="lQkiscjsi551CZ9GCO7X-15" target="lQkiscjsi551CZ9GCO7X-19">
          <mxGeometry relative="1" as="geometry">
            <mxPoint x="740" y="260" as="targetPoint" />
          </mxGeometry>
        </mxCell>
        <mxCell id="lQkiscjsi551CZ9GCO7X-15" value="" style="rounded=0;whiteSpace=wrap;html=1;fillColor=#f8cecc;gradientColor=#ea6b66;strokeColor=#b85450;" vertex="1" parent="1">
          <mxGeometry x="450" y="200" width="200" height="120" as="geometry" />
        </mxCell>
        <mxCell id="lQkiscjsi551CZ9GCO7X-16" value="&lt;b&gt;&lt;font face=&quot;Comic Sans MS&quot;&gt;configs&lt;/font&gt;&lt;/b&gt;" style="ellipse;whiteSpace=wrap;html=1;fillColor=#fff2cc;gradientColor=#ffd966;strokeColor=#d6b656;" vertex="1" parent="1">
          <mxGeometry x="505" y="250" width="90" height="60" as="geometry" />
        </mxCell>
        <mxCell id="lQkiscjsi551CZ9GCO7X-17" value="&lt;b style=&quot;text-wrap-mode: wrap;&quot;&gt;Ansible Server&lt;/b&gt;" style="text;html=1;align=center;verticalAlign=middle;resizable=0;points=[];autosize=1;strokeColor=none;fillColor=none;" vertex="1" parent="1">
          <mxGeometry x="475" y="210" width="110" height="30" as="geometry" />
        </mxCell>
        <mxCell id="lQkiscjsi551CZ9GCO7X-18" value="&lt;b&gt;NODE-1&lt;/b&gt;" style="rounded=1;whiteSpace=wrap;html=1;fillColor=#d5e8d4;gradientColor=#97d077;strokeColor=#82b366;" vertex="1" parent="1">
          <mxGeometry x="770" y="100" width="120" height="60" as="geometry" />
        </mxCell>
        <mxCell id="lQkiscjsi551CZ9GCO7X-19" value="&lt;b&gt;NODE-2&lt;/b&gt;" style="rounded=1;whiteSpace=wrap;html=1;fillColor=#d5e8d4;gradientColor=#97d077;strokeColor=#82b366;" vertex="1" parent="1">
          <mxGeometry x="770" y="230" width="120" height="60" as="geometry" />
        </mxCell>
        <mxCell id="lQkiscjsi551CZ9GCO7X-20" value="&lt;b&gt;NODE-3&lt;/b&gt;" style="rounded=1;whiteSpace=wrap;html=1;fillColor=#d5e8d4;gradientColor=#97d077;strokeColor=#82b366;" vertex="1" parent="1">
          <mxGeometry x="770" y="350" width="120" height="60" as="geometry" />
        </mxCell>
        <mxCell id="lQkiscjsi551CZ9GCO7X-25" value="&lt;b&gt;Control/Master and Nodes&lt;/b&gt;" style="text;html=1;align=center;verticalAlign=middle;resizable=0;points=[];autosize=1;strokeColor=none;fillColor=none;" vertex="1" parent="1">
          <mxGeometry x="355" y="390" width="170" height="30" as="geometry" />
        </mxCell>
        <mxCell id="lQkiscjsi551CZ9GCO7X-26" value="&lt;b&gt;SSH&lt;/b&gt;" style="text;html=1;align=center;verticalAlign=middle;resizable=0;points=[];autosize=1;strokeColor=none;fillColor=none;" vertex="1" parent="1">
          <mxGeometry x="650" y="160" width="50" height="30" as="geometry" />
        </mxCell>
        <mxCell id="lQkiscjsi551CZ9GCO7X-27" value="&lt;b&gt;1. uses SSH protocol&lt;/b&gt;&lt;div&gt;&lt;b&gt;2. No agent software required&lt;/b&gt;&lt;/div&gt;&lt;div&gt;&lt;b&gt;3. No resource waste&lt;/b&gt;&lt;/div&gt;" style="text;html=1;align=left;verticalAlign=middle;resizable=0;points=[];autosize=1;strokeColor=none;fillColor=none;" vertex="1" parent="1">
          <mxGeometry x="525" y="320" width="190" height="60" as="geometry" />
        </mxCell>
      </root>
    </mxGraphModel>
  </diagram>
</mxfile>
